<svg version="1.1" xmlns="http://www.w3.org/2000/svg" x="0px" y="0px"
	 viewBox="0 0 201.14 201.14" style="enable-background:new 0 0 201.14 201.14;" xml:space="preserve">
<path d="M187.757,163.061c-9.442-34.208-19.353-71.493-29.494-111.221C156.609,45.381,151.107,41,144.886,41H56.3
	c-6.203,0-11.704,4.382-13.359,10.845C32.81,91.531,22.917,128.821,13.505,162.931C71.374,170.714,129.88,170.76,187.757,163.061z
	 M71.047,107.431c0-16.486,13.365-29.851,29.851-29.851c16.486,0,29.851,13.365,29.851,29.851c0,16.486-13.365,29.851-29.851,29.851
	C84.411,137.282,71.047,123.917,71.047,107.431z M189.105,178.012c-0.477,1.509-1.131,3.029-1.987,4.5
	c-2.944,5.06-7.569,8.806-12.378,10.013c-48.519,11.48-99.807,11.485-148.243,0.019c-4.82-1.198-9.461-4.922-12.412-9.993
	c-0.892-1.533-1.571-3.114-2.05-4.68c29.582,3.954,59.324,5.934,89.067,5.934C130.488,183.805,159.874,181.872,189.105,178.012z
	 M142.268,26h-84V9.833C58.268,4.587,63.146,0,68.393,0h64.418c5.247,0,9.458,4.587,9.458,9.833V26z"/>
</svg>
