<svg version="1.1"  xmlns="http://www.w3.org/2000/svg" x="0px" y="0px"
	 viewBox="0 0 512 512" style="enable-background:new 0 0 512 512;" xml:space="preserve">
<g>
	<ellipse cx="392" cy="467" rx="60" ry="45"/>
	<path d="M467,362c-16.339,0-30.507,14.658-38.39,36.367C460.298,409.858,482,435.89,482,467c0,16.897-6.597,32.17-17.505,44.579
		c0.846,0.079,1.646,0.421,2.505,0.421c24.853,0,45-33.58,45-75C512,395.578,491.853,362,467,362z"/>
	<polygon points="81.728,0 111.728,62 251.272,62 281.272,0"/>
	<rect x="121" y="92" width="121" height="30"/>
	<path d="M280.451,213.7c-20.096-14.229-32.853-36.698-36.716-61.699H119.264c-3.864,25.003-16.62,47.474-36.716,61.714
		c-32.23,22.836-57.201,55.606-70.544,93.26l63.629,41.754c35.801,23.862,83.969,22.573,118.407-3.252
		c37.573-28.198,87.744-34.189,130.854-15.688l34.296,14.696C350.936,291.328,322.981,243.847,280.451,213.7z"/>
	<path d="M313.089,357.356c-33.398-14.312-72.07-9.639-101.06,12.114c-44.561,33.442-107.674,35.127-154.036,4.219l-54-35.999
		C1.567,350.51,0,363.604,0,377c0,47.813,16.128,93.809,45.41,129.507L49.907,512H319.92C308.775,499.516,302,484.097,302,467
		c0-32.653,23.963-59.592,58.24-70.106c0.584-6.218,1.52-12.374,1.648-18.627L313.089,357.356z"/>
	<path d="M347,122c-28.242,0-53.76,11.287-72.632,29.425c3.375,15.919,11.444,29.321,23.414,37.782
		c4.706,3.336,8.994,7.141,13.392,10.827C319.386,189.145,332.309,182,347,182c24.853,0,45,20.147,45,45
		c0,18.206-10.865,33.801-26.418,40.886c9.142,17.666,16.04,36.608,20.477,56.426C424.67,308.797,452,271.16,452,227
		C452,169.01,404.99,122,347,122z"/>
</g>
</svg>
