<svg xmlns="http://www.w3.org/2000/svg" viewBox="0 0 183.29 77.24">
    <g>
        <path d="M29.76,25.38,16.19,62.58H13.57L0,25.38H3.61L14.88,56.27,26.15,25.38Z"/>
        <path d="M38,25.38v37.2H34.58V25.38Z"/>
        <path
              d="M47,25.38H60A14.09,14.09,0,0,1,74,39.45,14.09,14.09,0,0,1,60,53.57h-9.6v9H47Zm13,3.38h-9.6V50.18H60A10.7,10.7,0,0,0,70.66,39.45,10.7,10.7,0,0,0,60,28.77Z"/>
        <path
              d="M84.18,25.38v37.2H80.8V25.38Zm20,0L90.68,44l13.48,18.62H99.92L86.44,44,99.92,25.38Z"/>
        <path
              d="M131.53,33.23h3.38V62.58h-3.38V59a15.39,15.39,0,0,1-11.27,4.73,15.78,15.78,0,0,1-15.78-15.78,15.78,15.78,0,0,1,15.78-15.78,15.39,15.39,0,0,1,11.27,4.73Zm0,9.42A13.16,13.16,0,0,0,129,39.14a12.42,12.42,0,0,0-21.19,8.79A12.4,12.4,0,0,0,129,56.68a12.51,12.51,0,0,0,2.48-3.47Z"/>
        <path
              d="M147.31,28.77v4.51h4.51v3.38h-4.51V62.58a14.62,14.62,0,0,1-14.65,14.65V73.86a11.24,11.24,0,0,0,11.27-11.27V28.77a14.12,14.12,0,0,1,4.28-10.37,14.13,14.13,0,0,1,10.37-4.28v3.38a11.24,11.24,0,0,0-11.27,11.27Z"/>
        <path
              d="M163.5,57.85a12.47,12.47,0,0,0,16.28-1.17l2.39,2.39a15.78,15.78,0,0,1-27-11.14,15.81,15.81,0,0,1,27-11.18q.59.63,1.13,1.31Zm15-19.79a12.41,12.41,0,0,0-19.93,9.88,11.91,11.91,0,0,0,2.52,7.53Z"/>
        <path
              d="M161.14,12.9c-.52-2.06.93-4.67,3.6-6.18,3-1.72,6.46-1.39,7.68.75h0a7.23,7.23,0,0,1-5.75,2.91C163.45,10.61,161.87,11.93,161.14,12.9Zm11.58-4.7a7.07,7.07,0,0,1-2,1.73,9.18,9.18,0,0,1-4,1.13c-3.43.24-4.8,1.8-5.28,2.6l0,0c1.22,2.14,4.65,2.47,7.68.75C171.83,12.91,173.29,10.27,172.72,8.2Z"/>
        <path
              d="M155,12.45c-2.12-.11-4.18-2.26-4.85-5.26-.76-3.4.58-6.59,3-7.12h0a7.23,7.23,0,0,1,1.09,6.35C153.48,9.56,154.28,11.46,155,12.45ZM153.9,0A7.07,7.07,0,0,1,155,2.46a9.18,9.18,0,0,1-.09,4.12c-.78,3.35.3,5.11.93,5.81h0c2.4-.53,3.73-3.72,3-7.12C158.15,2.24,156,.07,153.9,0Z"/>
        <path
              d="M169,26.06c-1.32,1.66-4.28,2.08-7.1.88-3.2-1.37-5-4.31-4.05-6.57h0a7.23,7.23,0,0,1,5.8,2.82C165.8,25.6,167.81,26.06,169,26.06Zm-10.75-6.38a7.07,7.07,0,0,1,2.61.58,9.18,9.18,0,0,1,3.29,2.47c2.27,2.59,4.33,2.73,5.26,2.63l0,0c1-2.26-.85-5.2-4.05-6.57C162.57,17.53,159.58,18,158.28,19.68Z"/>
    </g>
</svg>