<svg version="1.1" xmlns="http://www.w3.org/2000/svg" x="0px" y="0px"
	 viewBox="0 0 58 58" style="enable-background:new 0 0 58 58;" xml:space="preserve">
<g>
	<path d="M58,34V19.004l-18.357,0.008C38.314,23.686,33.989,27,29.061,27c-4.913,0-9.237-3.324-10.576-8.012L0,18.996V34h19.875
		h18.167H58z"/>
	<path d="M29.061,41.955c3.837,0,7.219-2.443,8.474-5.956H20.394C21.679,39.466,25.196,41.955,29.061,41.955z"/>
	<path d="M29.061,43.955c-5.032,0-9.439-3.3-10.782-7.956H0v17l58-0.023V36H39.643C38.316,40.656,33.992,43.955,29.061,43.955z"/>
	<polygon points="44.391,5 13.609,5 0.613,16.996 3.564,16.994 14.391,7 43.609,7 54.444,17.001 57.396,17.004 	"/>
</g>
</svg>
