<svg version="1.1" xmlns="http://www.w3.org/2000/svg" x="0px" y="0px"
	 viewBox="0 0 489.104 489.104" style="enable-background:new 0 0 489.104 489.104;" xml:space="preserve">
	<g>
		<path d="M359.952,108.102h-87.2v83.3h-54.1v-83.3h-89.5c-11.6,0-21,9.4-21,21v230.8c0,11.6,9.4,21,21,21h230.8
			c11.6,0,21-9.4,21-21v-230.7C381.052,117.602,371.552,108.102,359.952,108.102z"/>
		<path d="M242.352,448.402l-56.4-32.6c-2.9-1.7-6.6,0.4-6.6,3.8v17.8h-83.5c-22.6,0-40.9-18.3-40.9-40.9v-151.9h-29.6v151.9
			c0,38.9,31.5,70.4,70.4,70.4h83.5v17.8c0,3.4,3.7,5.5,6.6,3.8l56.4-32.6C245.252,454.302,245.252,450.102,242.352,448.402z"/>
		<path d="M393.352,22.302h-83.5v-17.9c0-3.4-3.7-5.5-6.6-3.8l-56.4,32.6c-2.9,1.7-2.9,5.9,0,7.6l56.4,32.6c2.9,1.7,6.6-0.4,6.6-3.8
			v-17.9h83.5c22.6,0,40.9,18.4,40.9,40.9v152h29.5v-151.9C463.752,53.802,432.152,22.302,393.352,22.302z"/>
	</g>
</svg>
